#!OML:ASF X:\für Bonn\!DataBase\2005_08_11_Bastian_Final\c3d\Bastian.ASF
:FULLY-SPECIFIED
:DEGREES
61
root -2.09608 16.8503 6.12956 143.444 -18.9806 -169.607
lowerback 40.0689 -8.0038 1.64542
upperback 13.2454 -15.0858 4.55544
thorax -3.13094 -10.0581 9.43399
lowerneck -12.0586 -3.49802 -3.71989
upperneck -3.23286 -3.80692 7.9787
head 1.32356 -1.49268 3.07087
rclavicle 6.85807e-014 -9.06458e-014
rhumerus -42.4353 39.9412 -98.2465
rradius 40.5353
rwrist -30.4692
rhand -35.4799 1.50154
rfingers 7.12502
rthumb -8.60792 -28.303
lclavicle 6.85807e-014 -9.06458e-014
lhumerus 52.9757 -16.9543 75.5196
lradius 105.594
lwrist -16.6994
lhand -58.9275 -15.5829
lfingers 7.12502
lthumb -31.1302 11.7937
rfemur -82.3879 -0.509241 39.0546
rtibia 132.367
rfoot 7.57513 -12.8118
rtoes -7.91345
lfemur 20.8513 -6.5317 -16.6537
ltibia 32.5666
lfoot -11.7579 -6.89974
ltoes 6.96245
62
root -2.10624 16.8316 6.13158 142.918 -19.0448 -169.364
lowerback 40.6057 -8.0915 1.81309
upperback 13.3012 -15.2392 4.66334
thorax -3.20092 -10.1903 9.58582
lowerneck -11.9382 -3.44493 -3.74951
upperneck -3.37955 -3.72312 7.91456
head 1.24754 -1.45595 3.05922
rclavicle -3.3197e-014 5.96354e-014
rhumerus -42.2512 40.1951 -98.042
rradius 40.6766
rwrist -30.2907
rhand -35.3308 1.73328
rfingers 7.12502
rthumb -8.46406 -28.0771
lclavicle -3.3197e-014 5.96354e-014
lhumerus 53.347 -16.8272 75.5786
lradius 106.067
lwrist -16.8762
lhand -59.0589 -15.2498
lfingers 7.12502
lthumb -31.2555 12.1027
rfemur -83.8118 -0.287703 39.4705
rtibia 133.106
rfoot 7.3994 -12.9344
rtoes -7.38754
lfemur 21.1625 -6.56897 -16.48
ltibia 32.8493
lfoot -11.8921 -7.09232
ltoes 6.93234
63
root -2.11549 16.8123 6.13318 142.395 -19.1407 -169.135
lowerback 41.1416 -8.18525 1.94903
upperback 13.347 -15.4045 4.7591
thorax -3.2747 -10.3261 9.74639
lowerneck -11.8068 -3.37391 -3.7327
upperneck -3.53474 -3.62082 7.80297
head 1.16306 -1.41168 3.02345
rclavicle -2.50469e-014 1.90833e-014
rhumerus -42.1319 40.5099 -97.8966
rradius 40.8487
rwrist -30.1234
rhand -35.1892 1.87512
rfingers 7.12502
rthumb -8.32735 -27.9407
lclavicle -2.50469e-014 1.90833e-014
lhumerus 53.66 -16.6796 75.5877
lradius 106.584
lwrist -16.9099
lhand -59.1241 -14.9473
lfingers 7.12502
lthumb -31.3176 12.3931
rfemur -85.1853 -0.0949153 39.825
rtibia 133.817
rfoot 7.30682 -13.1395
rtoes -6.65122
lfemur 21.4778 -6.6298 -16.3412
ltibia 33.1166
lfoot -11.9984 -7.27626
ltoes 6.95002
64
root -2.12488 16.7944 6.13452 141.862 -19.2304 -168.909
lowerback 41.6691 -8.2731 2.09
upperback 13.3931 -15.5584 4.85003
thorax -3.34576 -10.4557 9.89509
lowerneck -11.6642 -3.30818 -3.72388
upperneck -3.67447 -3.52742 7.70696
head 1.08334 -1.37177 2.99411
rclavicle 7.67309e-014 -5.725e-014
rhumerus -41.9757 40.7377 -97.7296
rradius 40.9727
rwrist -29.9001
rhand -35.0434 2.09147
rfingers 7.12502
rthumb -8.18666 -27.7299
lclavicle 7.67309e-014 -5.725e-014
lhumerus 53.9362 -16.569 75.5921
lradius 107.085
lwrist -16.8993
lhand -59.2085 -14.7236
lfingers 7.12502
lthumb -31.3981 12.6012
rfemur -86.4584 0.0909089 40.145
rtibia 134.473
rfoot 7.28076 -13.296
rtoes -5.78646
lfemur 21.8278 -6.73072 -16.2309
ltibia 33.3512
lfoot -12.1051 -7.44481
ltoes 7.14655
65
root -2.13294 16.7778 6.13615 141.354 -19.3127 -168.699
lowerback 42.1969 -8.36339 2.20819
upperback 13.4135 -15.7086 4.92974
thorax -3.44256 -10.5765 10.0474
lowerneck -11.5362 -3.22937 -3.65866
upperneck -3.77498 -3.42762 7.55668
head 1.01581 -1.33044 2.93585
rclavicle -5.9039e-014 1.04163e-013
rhumerus -41.9199 41.0524 -97.6404
rradius 41.145
rwrist -29.7246
rhand -34.8933 2.22736
rfingers 7.12502
rthumb -8.04183 -27.5996
lclavicle -5.9039e-014 1.04163e-013
lhumerus 54.1629 -16.4644 75.5717
lradius 107.56
lwrist -16.8278
lhand -59.2297 -14.5983
lfingers 7.12502
lthumb -31.4182 12.7227
rfemur -87.6552 0.257685 40.4405
rtibia 135.062
rfoot 7.38661 -13.4499
rtoes -4.88567
lfemur 22.1707 -6.77794 -16.0959
ltibia 33.5239
lfoot -12.1581 -7.61476
ltoes 7.131
66
root -2.14075 16.7648 6.13795 140.879 -19.3771 -168.53
lowerback 42.6657 -8.41736 2.30516
upperback 13.4595 -15.8275 5.00444
thorax -3.49387 -10.6858 10.1802
lowerneck -11.4363 -3.1716 -3.62103
upperneck -3.89478 -3.34822 7.44351
head 0.950311 -1.29635 2.89436
rclavicle 2.84262e-014 -1.19271e-014
rhumerus -41.7845 41.2849 -97.5069
rradius 41.2819
rwrist -29.5112
rhand -34.7825 2.40011
rfingers 7.12502
rthumb -7.93488 -27.431
lclavicle 2.84262e-014 -1.19271e-014
lhumerus 54.4156 -16.4128 75.5346
lradius 108.048
lwrist -16.7283
lhand -59.2084 -14.4647
lfingers 7.12502
lthumb -31.3979 12.8601
rfemur -88.7148 0.398941 40.7065
rtibia 135.572
rfoot 7.5646 -13.6281
rtoes -4.17743
lfemur 22.5524 -6.82009 -16.005
ltibia 33.5998
lfoot -12.191 -7.74173
ltoes 7.10074
67
root -2.14752 16.7584 6.14288 140.465 -19.4503 -168.385
lowerback 43.1138 -8.47428 2.36392
upperback 13.4793 -15.9501 5.07956
thorax -3.56041 -10.7909 10.3349
lowerneck -11.3588 -3.09324 -3.56774
upperneck -4.00279 -3.24322 7.30681
head 0.890307 -1.24937 2.84313
rclavicle -2.36554e-014 2.38542e-015
rhumerus -41.6717 41.576 -97.3927
rradius 41.437
rwrist -29.2643
rhand -34.6553 2.47348
rfingers 7.12502
rthumb -7.81212 -27.3622
lclavicle -2.36554e-014 2.38542e-015
lhumerus 54.6848 -16.3461 75.472
lradius 108.481
lwrist -16.6266
lhand -59.1575 -14.2681
lfingers 7.12502
lthumb -31.3494 13.0662
rfemur -89.6739 0.463584 40.9365
rtibia 135.991
rfoot 7.7784 -13.7314
rtoes -3.78052
lfemur 22.9101 -6.87738 -15.9428
ltibia 33.5832
lfoot -12.1415 -7.84497
ltoes 7.28248
68
root -2.15306 16.7558 6.14835 140.082 -19.5167 -168.273
lowerback 43.5382 -8.513 2.39538
upperback 13.4876 -16.0506 5.15124
thorax -3.63159 -10.8809 10.4902
lowerneck -11.3182 -3.03026 -3.55667
upperneck -4.04609 -3.15979 7.1914
head 0.860934 -1.21199 2.80591
rclavicle 1.92821e-014 4.77083e-014
rhumerus -41.5746 41.8419 -97.2807
rradius 41.5995
rwrist -29.0197
rhand -34.5416 2.56107
rfingers 7.12502
rthumb -7.70237 -27.2787
lclavicle 1.92821e-014 4.77083e-014
lhumerus 54.8832 -16.3244 75.4275
lradius 108.942
lwrist -16.5389
lhand -59.0932 -14.1017
lfingers 7.12502
lthumb -31.2881 13.2445
rfemur -90.5319 0.498307 41.1388
rtibia 136.355
rfoot 8.01355 -13.8146
rtoes -3.58513
lfemur 23.2948 -6.93106 -15.9198
ltibia 33.4756
lfoot -12.0679 -7.90393
ltoes 7.23569
69
root -2.15844 16.756 6.15382 139.74 -19.5728 -168.177
lowerback 43.8887 -8.54812 2.44314
upperback 13.5108 -16.1367 5.20102
thorax -3.67552 -10.9595 10.5964
lowerneck -11.295 -2.97682 -3.53715
upperneck -4.08779 -3.08852 7.09677
head 0.836279 -1.17933 2.77355
rclavicle -4.45278e-014 -7.95139e-015
rhumerus -41.4664 42.0514 -97.1834
rradius 41.7635
rwrist -28.7684
rhand -34.4382 2.60482
rfingers 7.12502
rthumb -7.60257 -27.2385
lclavicle -4.45278e-014 -7.95139e-015
lhumerus 55.0851 -16.3592 75.3479
lradius 109.385
lwrist -16.5164
lhand -59.0419 -13.8288
lfingers 7.12502
lthumb -31.2393 13.5268
rfemur -91.3075 0.522187 41.3582
rtibia 136.666
rfoot 8.33521 -13.8481
rtoes -3.63185
lfemur 23.6663 -6.97806 -15.8986
ltibia 33.3197
lfoot -11.9634 -7.9617
ltoes 7.32965
70
root -2.16241 16.7565 6.15906 139.397 -19.6423 -168.096
lowerback 44.2511 -8.55824 2.44329
upperback 13.5278 -16.2085 5.26365
thorax -3.71976 -11.0333 10.7361
lowerneck -11.2821 -2.93028 -3.55328
upperneck -4.12616 -3.0222 7.01903
head 0.816171 -1.14807 2.75332
rclavicle 2.8625e-014 -9.85972e-014
rhumerus -41.3236 42.2979 -97.0806
rradius 41.8618
rwrist -28.5752
rhand -34.3287 2.70781
rfingers 7.12502
rthumb -7.49688 -27.1393
lclavicle 2.8625e-014 -9.85972e-014
lhumerus 55.2382 -16.4109 75.3293
lradius 109.867
lwrist -16.5204
lhand -58.9435 -13.5265
lfingers 7.12502
lthumb -31.1455 13.8472
rfemur -91.9664 0.502212 41.5436
rtibia 136.927
rfoot 8.66662 -13.876
rtoes -3.27167
lfemur 24.04 -7.01331 -15.8893
ltibia 33.1603
lfoot -11.8559 -8.03713
ltoes 7.27327
